<?xml version="1.0" standalone="no"?>
<!DOCTYPE svg PUBLIC "-//W3C//DTD SVG 20010904//EN"
 "http://www.w3.org/TR/2001/REC-SVG-20010904/DTD/svg10.dtd">
<svg version="1.0" xmlns="http://www.w3.org/2000/svg"
 width="558.000000pt" height="150.000000pt" viewBox="0 0 558.000000 150.000000"
 preserveAspectRatio="xMidYMid meet">

<g transform="translate(0.000000,150.000000) scale(0.100000,-0.100000)"
fill="#000000" stroke="none">
<path d="M3517 1190 c-94 -24 -191 -100 -235 -185 -23 -43 -27 -63 -27 -135 0
-70 4 -94 24 -135 33 -66 94 -125 167 -161 53 -26 69 -29 154 -28 76 0 105 5
148 23 28 13 52 25 52 28 0 2 -14 30 -30 63 -30 60 -31 60 -54 44 -34 -21
-122 -29 -176 -14 -57 15 -115 74 -131 133 -22 80 18 169 94 209 54 28 156 31
204 5 l33 -17 29 59 c24 48 28 61 17 70 -42 35 -197 59 -269 41z"/>
<path d="M3985 951 c-45 -11 -69 -27 -103 -65 -120 -137 -16 -360 160 -344 28
3 62 14 78 27 36 26 40 26 40 1 0 -18 7 -20 65 -20 l65 0 0 195 0 195 -65 0
c-51 0 -65 -3 -65 -15 0 -12 -6 -11 -37 5 -46 23 -98 31 -138 21z m149 -142
c65 -77 -4 -181 -99 -149 -101 33 -73 180 35 180 30 0 44 -6 64 -31z"/>
<path d="M4606 950 c-16 -5 -42 -21 -57 -36 l-29 -28 0 26 c0 25 -3 26 -65 30
l-65 3 0 -197 0 -198 65 0 65 0 0 110 c0 115 12 161 45 174 24 9 74 7 94 -3
15 -8 22 -1 44 44 24 50 25 55 9 64 -29 15 -76 20 -106 11z"/>
<path d="M4904 949 c-47 -11 -117 -67 -141 -113 -9 -18 -16 -55 -16 -88 0 -80
38 -141 113 -181 49 -26 62 -28 122 -24 36 3 79 12 95 20 30 16 89 74 82 81
-2 2 -23 13 -47 25 l-43 22 -26 -21 c-38 -30 -106 -27 -138 5 -51 50 -39 55
120 55 l145 0 0 33 c-1 41 -23 103 -47 129 -44 49 -142 74 -219 57z m113 -101
c41 -38 31 -48 -52 -48 -68 0 -75 2 -75 19 0 48 86 67 127 29z"/>
</g>
</svg>
